<?xml version="1.0" encoding="UTF-8"?>
<svg width="56px" height="56px" viewBox="0 0 56 56" version="1.1" xmlns="http://www.w3.org/2000/svg" xmlns:xlink="http://www.w3.org/1999/xlink">
    <!-- Generator: Sketch 52.4 (67378) - http://www.bohemiancoding.com/sketch -->
    <title>agenda_default</title>
    <desc>Created with Sketch.</desc>
    <g id="agenda_default" stroke="none" stroke-width="1" fill="none" fill-rule="evenodd">
        <g>
            <rect id="Combined-Shape" stroke="#979797" stroke-width="2" x="11" y="7" width="34" height="42" rx="4"></rect>
            <path d="M19,19 C17.3431458,19 16,17.6568542 16,16 C16,14.3431458 17.3431458,13 19,13 C20.6568542,13 22,14.3431458 22,16 C22,17.6568542 20.6568542,19 19,19 Z M16,23 L39,23 L39,26 L16,26 L16,23 Z M16,30 L31,30 L31,33 L16,33 L16,30 Z M16,37 L24,37 L24,40 L16,40 L16,37 Z" id="Combined-Shape" fill="#8A8A8A"></path>
            <g id="Group-2" transform="translate(9.000000, 6.000000)"></g>
        </g>
    </g>
</svg>