<?xml version="1.0" encoding="UTF-8"?>
<svg width="72px" height="72px" viewBox="0 0 72 72" version="1.1" xmlns="http://www.w3.org/2000/svg" xmlns:xlink="http://www.w3.org/1999/xlink">
    <!-- Generator: Sketch 52.4 (67378) - http://www.bohemiancoding.com/sketch -->
    <title>pdf</title>
    <desc>Created with Sketch.</desc>
    <g id="Page-1" stroke="none" stroke-width="1" fill="none" fill-rule="evenodd">
        <g id="附件1个-Switch开启toast" transform="translate(-40.000000, -684.000000)">
            <g id="附件" transform="translate(0.000000, 549.000000)">
                <g id="1" transform="translate(40.000000, 100.000000)">
                    <g id="pdf" transform="translate(0.000000, 35.000000)">
                        <g>
                            <rect id="矩形" fill="#EC5D78" fill-rule="nonzero" x="0" y="0" width="72" height="72" rx="4"></rect>
                            <path d="M33.8887667,19.0778175 C31.8883822,15.0995819 29.4632879,16.7784851 28.4292477,18.2942999 C27.577871,20.7564717 30.917182,30.4689228 36.8313955,37.1174857 C41.0771176,41.890386 48.110092,44.4066167 49.0769395,44.6814941 C51.3905878,45.3392705 56.9196209,45.6472903 56.919621,42.0437766 C56.9196212,38.4402628 50.366191,38.4113687 46.3558251,38.7550113 C29.1217352,40.231776 19.2423139,45.9983651 17.2642493,47.913545 C15.2861846,49.8287248 13.9696722,56.4003858 20.5248488,54.8386756 C27.0800254,53.2769654 35.8891513,23.0560531 33.8887667,19.0778175 Z" id="Path-442" stroke="#FFFFFF" stroke-width="3"></path>
                        </g>
                    </g>
                </g>
            </g>
        </g>
    </g>
</svg>