<?xml version="1.0" encoding="UTF-8"?>
<svg width="72px" height="72px" viewBox="0 0 72 72" version="1.1" xmlns="http://www.w3.org/2000/svg" xmlns:xlink="http://www.w3.org/1999/xlink">
    <!-- Generator: Sketch 52.4 (67378) - http://www.bohemiancoding.com/sketch -->
    <title>Rexcel</title>
    <desc>Created with Sketch.</desc>
    <g id="Page-1" stroke="none" stroke-width="1" fill="none" fill-rule="evenodd">
        <g id="Rexcel">
            <rect id="矩形" fill="#00BC66" x="0" y="0" width="72" height="72" rx="4"></rect>
            <path d="M30,30.8 L30,39.2 L55.2,39.2 L55.2,30.8 L30,30.8 Z M27.6,30.8 L16.8,30.8 L16.8,39.2 L27.6,39.2 L27.6,30.8 Z M27.6,41.6 L16.8,41.6 L16.8,49.1425146 C16.8,49.6152216 17.1831897,50 17.6558782,50 L54.3441218,50 C54.8199417,50 55.2,49.6160907 55.2,49.1425146 L55.2,41.6 L30,41.6 L30,50 L27.6,50 L27.6,41.6 Z M27.6,28.4 L27.6,20 L30,20 L30,28.4 L55.2,28.4 L55.2,20.8574854 C55.2,20.3847784 54.8168103,20 54.3441218,20 L17.6558782,20 C17.1800583,20 16.8,20.3839093 16.8,20.8574854 L16.8,28.4 L27.6,28.4 Z M14.4,19.3138675 C14.4,18.3673246 15.1681515,17.6 16.1134675,17.6 L55.8865325,17.6 C56.8328545,17.6 57.6,18.367405 57.6,19.3138675 L57.6,50.6861325 C57.6,51.6326754 56.8318485,52.4 55.8865325,52.4 L16.1134675,52.4 C15.1671455,52.4 14.4,51.632595 14.4,50.6861325 L14.4,19.3138675 Z" id="Combined-Shape" fill="#FFFFFF" fill-rule="nonzero"></path>
        </g>
    </g>
</svg>