<?xml version="1.0" encoding="UTF-8"?>
<svg width="34px" height="34px" viewBox="0 0 34 34" version="1.1" xmlns="http://www.w3.org/2000/svg" xmlns:xlink="http://www.w3.org/1999/xlink">
    <!-- Generator: Sketch 52.4 (67378) - http://www.bohemiancoding.com/sketch -->
    <title>历史搜索</title>
    <desc>Created with Sketch.</desc>
    <g id="历史搜索" stroke="none" stroke-width="1" fill="none" fill-rule="evenodd">
        <g id="历史记录" fill="#D5D5D5">
            <path d="M16.7166777,6.23332227 C17.2833223,6.23332227 17.5666777,6.51667773 17.5666777,7.08332227 L17.5666777,17.85 C17.5666777,18.4166777 17.2833223,18.7 16.7166777,18.7 C16.15,18.7 15.8666777,18.4166777 15.8666777,17.85 L15.8666777,7.08332227 C15.8666777,6.51667773 16.15,6.23332227 16.7166777,6.23332227 Z" id="Path"></path>
            <path d="M15.8666777,17.85 C15.8666777,17.2833223 16.15,17 16.7166777,17 L27.4833223,17 C28.05,17 28.3333223,17.2833223 28.3333223,17.85 C28.3333223,18.4166777 28.05,18.7 27.4833223,18.7 L16.7166777,18.7 C16.15,18.7 15.8666777,18.4166777 15.8666777,17.85 Z" id="Path"></path>
            <path d="M17,34 C7.61088672,34 0,26.3891133 0,17 C0,7.61088672 7.61088672,0 17,0 C26.3891133,0 34,7.61088672 34,17 C34,26.3891133 26.3891133,34 17,34 Z M17,32.2736367 C25.435752,32.2736367 32.2736367,25.435752 32.2736367,17 C32.2736367,8.56424805 25.435752,1.72636328 17,1.72636328 C8.56424805,1.72636328 1.72636328,8.56424805 1.72636328,17 C1.72636328,25.435752 8.56424805,32.2736367 17,32.2736367 Z" id="Shape" fill-rule="nonzero"></path>
        </g>
    </g>
</svg>