<?xml version="1.0" encoding="UTF-8"?>
<svg width="20px" height="20px" viewBox="0 0 20 20" version="1.1" xmlns="http://www.w3.org/2000/svg" xmlns:xlink="http://www.w3.org/1999/xlink">
    <!-- Generator: Sketch 52.4 (67378) - http://www.bohemiancoding.com/sketch -->
    <title>icon_delete</title>
    <desc>Created with Sketch.</desc>
    <g id="Page-1" stroke="none" stroke-width="1" fill="none" fill-rule="evenodd">
        <g id="多附件样式" transform="translate(-676.000000, -710.000000)" fill="#A0A1A7">
            <g id="附件" transform="translate(0.000000, 549.000000)">
                <g id="1" transform="translate(40.000000, 100.000000)">
                    <g id="icon_delete" transform="translate(622.000000, 47.000000)">
                        <g id="小图标/关闭/未点击" transform="translate(7.000000, 7.000000)">
                            <path d="M15.6666667,15.6666667 L15.6666667,6.00069463 C15.6666667,5.44802625 16.1070124,5 16.6596349,5 L17.3403651,5 C17.8887663,5 18.3333333,5.44746922 18.3333333,6.00069463 L18.3333333,15.6666667 L27.9993054,15.6666667 C28.5519738,15.6666667 29,16.1070124 29,16.6596349 L29,17.3403651 C29,17.8887663 28.5525308,18.3333333 27.9993054,18.3333333 L18.3333333,18.3333333 L18.3333333,27.9993054 C18.3333333,28.5519738 17.8929876,29 17.3403651,29 L16.6596349,29 C16.1112337,29 15.6666667,28.5525308 15.6666667,27.9993054 L15.6666667,18.3333333 L6.00069463,18.3333333 C5.44802625,18.3333333 5,17.8929876 5,17.3403651 L5,16.6596349 C5,16.1112337 5.44746922,15.6666667 6.00069463,15.6666667 L15.6666667,15.6666667 Z" id="Rectangle-" transform="translate(17.000000, 17.000000) rotate(46.000000) translate(-17.000000, -17.000000) "></path>
                        </g>
                    </g>
                </g>
            </g>
        </g>
    </g>
</svg>