<?xml version="1.0" encoding="UTF-8"?>
<svg width="25px" height="25px" viewBox="0 0 25 25" version="1.1" xmlns="http://www.w3.org/2000/svg" xmlns:xlink="http://www.w3.org/1999/xlink">
    <!-- Generator: Sketch 52.4 (67378) - http://www.bohemiancoding.com/sketch -->
    <title>Artboard</title>
    <desc>Created with Sketch.</desc>
    <g id="Artboard" stroke="none" stroke-width="1" fill="none" fill-rule="evenodd">
        <g id="搜索" fill="#7A7E84">
            <path d="M17.7355619,16.3219368 L25,23.5863749 L23.5863749,25 L16.3219368,17.7355619 C14.5987836,19.1456643 12.3961096,19.9916774 9.99583868,19.9916774 C4.47528941,19.9916774 0,15.5163879 0,9.99583868 C0,4.47528941 4.47528941,0 9.99583868,0 C15.5163879,0 19.9916774,4.47528941 19.9916774,9.99583868 C19.9916774,12.3961096 19.1456643,14.5987836 17.7355619,16.3219368 Z M9.99583868,17.9925096 C14.4122781,17.9925096 17.9925096,14.4122781 17.9925096,9.99583868 C17.9925096,5.57939927 14.4122781,1.99916774 9.99583868,1.99916774 C5.57939927,1.99916774 1.99916774,5.57939927 1.99916774,9.99583868 C1.99916774,14.4122781 5.57939927,17.9925096 9.99583868,17.9925096 Z" id="Loupe"></path>
        </g>
    </g>
</svg>